<svg width="10" height="9" viewBox="0 0 10 9" fill="none" xmlns="http://www.w3.org/2000/svg">
<path d="M10 3.39062C9.83259 3.57478 9.64286 3.73661 9.44196 3.87612C8.51004 4.5067 7.57254 5.14286 6.66295 5.80134C6.1942 6.14732 5.61384 6.57143 5.00558 6.57143H5H4.99442C4.38616 6.57143 3.8058 6.14732 3.33705 5.80134C2.42746 5.13728 1.48996 4.5067 0.563616 3.87612C0.357143 3.73661 0.167411 3.57478 0 3.39062V7.82143C0 8.3125 0.401786 8.71429 0.892857 8.71429H9.10714C9.59821 8.71429 10 8.3125 10 7.82143V3.39062ZM10 1.75C10 1.25893 9.59263 0.857143 9.10714 0.857143H0.892857C0.295759 0.857143 0 1.32589 0 1.87277C0 2.38058 0.563616 3.01116 0.959821 3.27902C1.82478 3.8817 2.70089 4.48437 3.56585 5.09263C3.92857 5.34375 4.54241 5.85714 4.99442 5.85714H5H5.00558C5.45759 5.85714 6.07143 5.34375 6.43415 5.09263C7.29911 4.48437 8.17522 3.8817 9.04576 3.27902C9.53683 2.93862 10 2.375 10 1.75Z" fill="#707070"/>
</svg>
